<svg width="70" height="71" viewBox="0 0 70 71" fill="none" xmlns="http://www.w3.org/2000/svg">
<g clip-path="url(#clip0_96_799)">
<path d="M1.42969 57.5153L26.3283 0H46.7723L69.9973 58.4742C69.9973 58.4742 61.9644 60.0708 53.5328 50.4862C45.1012 40.9016 34.5999 35.39 17.9754 40.5012C17.9754 40.5012 27.9993 43.2199 27.7606 49.4482C27.7606 49.4482 28.7155 53.2815 17.8967 54.1614C7.07783 55.0413 1.42969 57.5153 1.42969 57.5153Z" fill="#2B3990"/>
<path d="M12.96 68.0143C12.8344 68.0143 12.7138 67.9105 12.7138 67.6114V61.4524H11.5079V67.5497C11.5079 68.4493 11.8205 69.0054 12.6745 69.0054C12.8918 69.0117 13.1083 68.9756 13.3119 68.8991L13.1618 67.997C13.0956 68.0118 13.0277 68.0176 12.96 68.0143ZM9.20191 68.039C8.7097 68.039 8.46359 67.7424 8.46359 67.1344V64.6777H9.77534V63.7163H8.47344V62.3075H7.46686L7.32412 63.7163L6.52674 63.7707V64.6777H7.26506V67.1493C7.26506 68.2615 7.70559 69.0153 8.88936 69.0153C9.24763 69.0098 9.60261 68.9455 9.94023 68.825L9.73596 67.9352C9.56533 68.0011 9.38468 68.0371 9.20191 68.0415V68.039ZM2.22972 62.0035L0 68.8793H1.23053L1.77443 67.0257H4.0706L4.59973 68.8892H5.88686L3.65468 62.0134L2.22972 62.0035ZM2.05253 66.0593L2.29863 65.2215C2.51767 64.4924 2.71701 63.7163 2.90652 62.9551H2.94835C3.15016 63.7089 3.34951 64.4924 3.56854 65.2215L3.81465 66.0593H2.05253ZM31.8855 68.8793H33.0914V63.7163H31.8855V68.8793ZM32.4934 61.44C32.3602 61.4501 32.2327 61.499 32.1268 61.5808C32.0208 61.6625 31.9409 61.7736 31.8969 61.9002C31.8528 62.0269 31.8465 62.1638 31.8787 62.294C31.911 62.4242 31.9804 62.5422 32.0784 62.6334C32.1764 62.7246 32.2988 62.7851 32.4305 62.8075C32.5623 62.8299 32.6977 62.8132 32.8201 62.7594C32.9425 62.7057 33.0467 62.6172 33.1198 62.5049C33.1929 62.3926 33.2318 62.2613 33.2317 62.1271C33.2313 62.0323 33.2115 61.9386 33.1735 61.8519C33.1355 61.7651 33.0802 61.6871 33.011 61.6227C32.9418 61.5582 32.8601 61.5088 32.7711 61.4774C32.6821 61.446 32.5875 61.4332 32.4934 61.44ZM38.5845 67.5719C38.2929 67.8406 37.9167 67.998 37.5214 68.0168C36.7215 68.0168 36.1579 67.3371 36.1579 66.3015C36.1579 65.266 36.7314 64.5714 37.5607 64.5714C37.8831 64.5831 38.1888 64.7184 38.4147 64.9496L39.0005 64.1612C38.5868 63.7873 38.0483 63.5835 37.4918 63.5902C36.1235 63.5902 34.9126 64.5789 34.9126 66.3089C34.9126 68.039 35.993 69.0029 37.3958 69.0029C38.0138 69.0042 38.6108 68.7782 39.0743 68.3677L38.5845 67.5719ZM29.5943 68.0415C29.1021 68.0415 28.856 67.7449 28.856 67.1369V64.6777H30.1652V63.7163H28.8781V62.3075H27.8765L27.7337 63.7163L26.9388 63.7707V64.6777H27.6771V67.1493C27.6771 68.2615 28.1152 69.0153 29.3014 69.0153C29.6597 69.0098 30.0147 68.9455 30.3523 68.825L30.148 67.9352C29.971 68.0029 29.7836 68.0388 29.5943 68.0415ZM23.7911 63.5927C23.0872 63.5927 22.5606 63.9659 22.1028 64.4157H22.0683L21.9773 63.7188H20.9929V68.8793H22.1963V65.2709C22.6196 64.8507 22.9174 64.6283 23.3702 64.6283C23.9264 64.6283 24.1701 64.9471 24.1701 65.7973V68.8793H25.376V65.6416C25.3736 64.3391 24.8912 63.5902 23.7911 63.5902V63.5927ZM16.9936 63.5927C16.2412 63.6149 15.5102 63.8496 14.8845 64.2699L15.3275 65.0756C15.7538 64.7769 16.2534 64.6008 16.7721 64.5665C17.4686 64.5665 17.6901 65.0287 17.7073 65.5848C15.5958 65.8122 14.6827 66.388 14.6827 67.4928C14.6738 67.695 14.7072 67.8968 14.7807 68.0852C14.8542 68.2736 14.9662 68.4445 15.1095 68.5868C15.2528 68.7291 15.4242 68.8396 15.6127 68.9113C15.8011 68.9829 16.0024 69.0142 16.2036 69.0029C16.8013 68.9704 17.3674 68.723 17.7984 68.3059H17.8329L17.9239 68.8769H18.9083V65.822C18.9133 64.3836 18.2808 63.5902 16.9936 63.5902V63.5927ZM17.7073 67.4978C17.3259 67.8512 17.0084 68.0563 16.5876 68.0563C16.1667 68.0563 15.8492 67.8586 15.8492 67.4014C15.8492 66.8799 16.3144 66.5141 17.7098 66.3386L17.7073 67.4978Z" fill="#1C75BC"/>
<path d="M42.532 62.0035L40.2998 68.8794H41.5303L42.0668 67.0158H44.3827L44.9118 68.8794H46.199L43.9668 62.0035H42.532ZM42.3474 66.0593L42.5935 65.2215C42.8125 64.4924 43.0144 63.7163 43.2014 62.9551H43.2432C43.445 63.7089 43.6444 64.4924 43.8634 65.2215L44.1095 66.0593H42.3474ZM48.9578 68.0143C48.8323 68.0143 48.7117 67.9105 48.7117 67.6115V61.4524H47.5058V67.5497C47.5058 68.4493 47.8183 69.0054 48.6723 69.0054C48.8897 69.0117 49.1061 68.9756 49.3098 68.8991L49.1596 67.997C49.0934 68.0118 49.0256 68.0176 48.9578 68.0143ZM63.0868 66.2472C62.9539 66.7168 62.8234 67.2358 62.693 67.7054H62.6512C62.5011 67.2111 62.3534 66.7044 62.1983 66.2472L61.3124 63.7163H60.0818L62.1048 68.8151L62.0088 69.1389C61.8366 69.6579 61.5166 70.0262 60.9826 70.0262C60.8569 70.019 60.7327 69.9949 60.6134 69.9545L60.3919 70.8937C60.6077 70.9656 60.834 71.0007 61.0613 70.9975C62.1836 70.9975 62.7225 70.2783 63.1508 69.1142L65.0089 63.7163H63.8448L63.0868 66.2472ZM56.5281 63.5903C55.2483 63.5903 54.0842 64.5789 54.0842 66.309C54.0842 68.0391 55.2483 69.003 56.5281 69.003C57.8078 69.003 58.9743 68.0143 58.9743 66.2991C58.9743 64.5838 57.8103 63.5903 56.5281 63.5903ZM56.5281 68.0168C55.775 68.0168 55.3221 67.3371 55.3221 66.3016C55.3221 65.266 55.775 64.5715 56.5281 64.5715C57.2811 64.5715 57.734 65.2586 57.734 66.3016C57.734 67.3445 57.2836 68.0143 56.5281 68.0143V68.0168ZM52.423 68.0168C52.2975 68.0168 52.1646 67.913 52.1646 67.6139V61.4524H50.9587V67.5497C50.9587 68.4493 51.2712 69.0054 52.1252 69.0054C52.3425 69.0117 52.559 68.9756 52.7626 68.8991L52.6125 67.997C52.5503 68.0107 52.4866 68.0165 52.423 68.0143V68.0168ZM68.5011 65.8443C67.9449 65.6367 67.4256 65.481 67.4256 65.0732C67.4256 64.7494 67.6717 64.5023 68.1886 64.5023C68.602 64.5263 68.9966 64.6841 69.3133 64.9521L69.867 64.2106C69.3831 63.8176 68.7814 63.5999 68.159 63.5927C67.0072 63.5927 66.2862 64.2403 66.2862 65.135C66.2862 66.0297 67.0565 66.3856 67.7308 66.6402C68.2796 66.8502 68.8358 67.043 68.8358 67.478C68.8358 67.8314 68.5725 68.0959 68.0114 68.0959C67.4861 68.074 66.9845 67.8706 66.5913 67.52L66.0401 68.2862C66.5923 68.7348 67.2767 68.9876 67.9868 69.0054C69.2862 69.0054 69.9851 68.2911 69.9851 67.4039C69.9778 66.44 69.2001 66.1038 68.5011 65.8443Z" fill="#6D6E71"/>
</g>
<defs>
<clipPath id="clip0_96_799">
<rect width="70" height="71" fill="white"/>
</clipPath>
</defs>
</svg>
