<svg width="203" height="872" viewBox="0 0 203 872" fill="none" xmlns="http://www.w3.org/2000/svg">
<g clip-path="url(#clip0_36_4301)">
<path d="M-612.187 450.308L-595.034 435.677L-589.172 440.607L-573.405 424.374C-577.406 425.551 -580.3 426.376 -583.175 427.253C-586.509 428.272 -589.823 429.344 -593.127 430.392C-593.142 427.856 -592.526 425.117 -593.277 422.821C-594.929 417.655 -597 412.633 -599.472 407.806C-602.505 401.975 -600.312 396.061 -593.763 393.908C-594.498 392.213 -596.099 390.334 -595.947 388.658C-594.769 375.381 -594.933 361.62 -591.277 348.993C-587.893 337.206 -580.609 326.447 -574.211 315.726C-573.412 314.389 -567.56 316.078 -563.137 316.434L-570.513 330.919L-549.484 316.642C-556.724 302.483 -556.725 302.483 -545.73 296.319C-553.437 292.802 -555.004 281.49 -548.778 276.597L-531.214 289.557C-529.012 286.826 -526.688 284.052 -524.56 281.112C-522.431 278.172 -518.921 274.94 -518.109 271.37C-516.805 265.594 -515.569 263.281 -509.912 267.521C-508.477 268.598 -505.823 268.034 -503.315 266.172C-505.309 265.116 -507.297 264.078 -509.262 262.992C-515.505 259.584 -519.95 256.676 -516.471 247.317C-513.966 240.57 -510.671 240.385 -505.381 239.594C-501.667 239.047 -496.979 237.491 -494.993 234.758C-490.428 228.476 -487.268 221.205 -483.716 214.655L-495.733 220.027L-497.185 218.349C-490.75 209.669 -484.233 201.057 -478.006 192.234C-477.46 191.455 -478.731 189.402 -479.211 187.929L-479.076 187.98L-481.719 180.487L-480.022 179.204L-472.258 184.598L-469.029 175.64C-464.96 174.987 -461.207 174.992 -457.989 173.701C-455.084 172.52 -452.764 169.903 -450.227 168.012L-447.939 170.508L-458.237 182.193L-448.671 183.667L-448.371 185.516L-463.876 193.076L-453.704 197.541L-484.873 224.172L-484.033 226.553L-460.808 225.926C-462.213 215.573 -460.126 209.912 -450.665 208.041C-446.135 207.147 -442.553 202.013 -438.001 200.681C-433.948 199.487 -429.121 200.873 -423.638 201.186C-422.312 197.024 -422.719 189.721 -413.878 189.026C-412.696 188.942 -412.359 182.255 -411.029 178.933C-409.098 174.915 -406.956 171.002 -404.613 167.209C-401.697 172.045 -399.951 174.889 -398.252 177.769L-405.347 190.279L-402.994 191.912L-392.879 179.705C-394.138 174.695 -394.973 168.95 -397.167 163.782C-397.981 161.86 -401.954 161.287 -405.531 159.676C-403.493 158.402 -401.249 157.491 -398.9 156.985C-392.149 156.402 -385.399 156.484 -378.547 156.413C-376.95 156.566 -375.372 156.881 -373.839 157.352L-393.048 170.363L-392.11 172.358C-383.894 169.949 -375.585 167.8 -367.51 164.991C-366.334 164.514 -365.269 163.799 -364.383 162.891C-363.496 161.983 -362.806 160.901 -362.357 159.714C-362.001 158.396 -364.561 154.96 -366.276 154.587C-375.49 152.559 -384.851 151.17 -394.052 149.567L-391.757 145.826L-400.803 145.107L-400.747 145.264L-389.994 136.975L-389.51 142.668C-384.709 142.93 -380.042 143.532 -375.368 143.544C-362.985 143.419 -350.943 144.156 -338.468 139.697C-319.005 132.833 -299.072 139.603 -280.147 144.401C-264.71 148.339 -251.304 145.077 -237.298 140.802C-236.725 140.6 -235.915 140.568 -235.56 140.189C-221.484 122.597 -200.631 129.648 -182.801 126.077C-173.724 124.539 -164.481 124.231 -155.321 125.161C-149.286 125.652 -143.252 128.469 -135.946 130.622L-140.842 123.944C-119.088 121.139 -98.6743 114.037 -77.7579 122.043C-65.8943 126.596 -54.6516 124.624 -42.6341 122.633C-28.6693 120.347 -14.2347 120.944 0.0201422 120.588C1.07335 120.625 2.10486 120.899 3.03837 121.388C3.97188 121.878 4.78356 122.571 5.41371 123.416C9.98393 131.831 18.026 133.139 26.2694 134.962C37.9645 137.541 43.7327 147.137 47.8674 156.976C55.3355 174.827 56.3691 193.989 54.4139 212.876C53.3458 223.144 48.4529 232.981 45.5224 243.065C45.089 244.84 45.0735 246.692 45.4769 248.475C48.3437 262.144 50.7986 275.918 54.3104 289.476C55.3792 293.614 59.1177 297.124 61.8332 300.779C65.8313 306.132 70.5564 311.052 73.9718 316.748C78.7077 324.636 82.9876 333.114 73.1978 340.867L80.2393 350.307L82.0283 338.261C88.1847 338.377 94.0425 339.086 96.9569 346.795C99.2377 353.262 106.212 359.852 105.23 365.378C102.62 380.138 113.85 391.756 112.084 405.807C112.025 406.585 112.128 407.368 112.388 408.104C112.648 408.84 113.058 409.514 113.592 410.083C124.971 420.573 117.634 431.292 113.864 441.711C111.356 448.616 108.14 454.344 98.4001 453.928C90.1708 453.586 85.1244 463.653 86.3583 472.249C87.1121 477.377 85.7206 482.794 85.5463 488.172C85.2634 496.344 85.2492 504.559 84.9898 512.743C84.5377 526.917 88.6158 541.526 81.2336 554.997C77.455 561.901 73.1347 568.487 69.1794 575.277C63.1089 585.764 57.4892 596.698 50.6062 606.71C48.0136 610.439 42.7575 612.821 38.218 614.519C30.9861 617.226 23.3567 618.862 15.8805 620.932L15.9344 623.356L28.758 626.476C26.4001 634.637 21.3065 637.646 14.0725 640.236C2.79483 644.214 -7.72663 650.446 -18.4801 655.744C-19.6413 656.329 -21.5907 657.173 -22.8122 657.643C-80.2241 680.003 -137.556 702.589 -195.096 724.642C-241.254 742.348 -239.547 741.922 -286.042 758.672C-294.366 761.608 -302.528 765.112 -310.577 768.44C-326.755 775.142 -346.777 787.677 -364.918 782.387C-372.58 780.163 -378.841 774.709 -385.883 770.977C-406.294 760.193 -426.341 768.945 -447.45 771.581C-467.665 774.098 -488.262 774.365 -507.603 782.183C-510.768 783.456 -514.852 782.57 -518.502 782.47C-528.799 782.192 -539.096 781.914 -549.386 781.38C-552.612 781.208 -556.902 781.177 -558.841 779.223C-570.875 767.263 -586.909 764.845 -601.962 760.225C-614.008 756.538 -624.832 751.442 -632.262 740.791C-632.424 740.566 -632.625 740.372 -632.855 740.218C-648.531 729.953 -648.505 712.743 -652.24 697.055C-653.599 690.784 -656.095 684.814 -659.605 679.442C-670.891 663.231 -674.419 644.421 -678.886 625.883C-679.132 625.291 -679.211 624.643 -679.116 624.01C-672.164 604.943 -669.521 584.738 -655.383 567.653C-648.3 559.095 -643.298 545.799 -639.779 533.729C-638.685 529.962 -639.068 525.66 -637.568 522.159C-636.565 519.851 -633.455 518.364 -632.915 517.9C-629.493 525.664 -626.792 531.827 -624.097 537.971L-620.519 537.315C-619.885 535.235 -618.068 532.131 -618.76 531.222C-625.179 523.713 -621.173 518.84 -613.282 513.516L-624.968 511.128C-624.91 505.752 -625.292 500.238 -624.868 494.792C-624.625 491.989 -622.882 489.342 -621.905 486.573C-619.272 478.803 -613.947 471.687 -619.799 462.629C-624.813 454.839 -617.011 453.084 -612.15 450.412C-611.628 454.274 -611.008 458.082 -610.585 461.94C-610.237 465.199 -610.122 468.461 -609.733 474.051L-604.493 456.39L-612.187 450.308ZM-501.951 466.315L-490.985 465.555C-490.195 456.715 -489.336 448.789 -488.537 440.806L-467.747 441.585C-468.313 437.875 -469.398 434.798 -469.04 431.936C-468.682 429.073 -467.568 424.419 -465.583 423.621C-462.666 422.475 -458.549 423.622 -455.164 424.579C-451.381 425.622 -447.372 425.503 -443.658 424.238C-439.944 422.974 -436.696 420.622 -434.336 417.487C-444.7 417.018 -455.29 419.013 -463.376 408.828C-468.209 402.714 -475.524 404.688 -478.951 411.702C-480.535 415.6 -481.726 419.648 -482.505 423.784C-479.277 427.395 -477.36 429.397 -475.506 431.44C-478.443 432.476 -481.656 434.724 -484.305 434.192C-491.283 432.744 -496.592 431.762 -495.984 441.908C-495.838 444.26 -499.159 446.643 -500.296 449.292C-502.671 454.802 -509.268 460.139 -501.535 466.442L-507.309 473.892L-498.394 474.794L-503.217 483.278C-494.331 479.167 -486.86 476.141 -479.852 472.301C-476.869 470.432 -474.424 467.818 -472.758 464.716C-471.864 463.15 -472.564 458.784 -473.591 458.365C-476.967 457.289 -480.517 456.869 -484.051 457.128C-484.955 459.203 -485.219 461.502 -484.81 463.729C-482.792 469.448 -485.326 471.573 -490.312 470.732C-494.38 470.055 -498.072 467.839 -501.951 466.315ZM-99.909 325.26L-102.992 326.934C-104.074 329.407 -106.127 331.949 -106.219 334.405C-106.382 343.082 -110.432 346.446 -118.967 347.619C-122.822 348.157 -127.318 352.636 -129.186 356.481C-131.054 360.326 -130.126 365.726 -130.398 370.219L-87.955 345.027C-91.5687 338.991 -95.7271 332.131 -99.9612 325.278L-99.909 325.26ZM-301.86 422.483C-314.097 423.3 -311.655 434.323 -314.589 441.515C-317.523 448.707 -319.111 457.223 -321.27 465.118L-317.959 466.14C-316.18 461.212 -313.577 456.405 -312.762 451.348C-310.604 438.742 -306.644 427.865 -292.558 424.539C-292.377 419.901 -292.228 415.724 -292.078 411.606C-305.615 410.066 -305.941 410.416 -301.86 422.483ZM-527.113 557.069L-527.725 556.385L-523.73 545.555C-528.235 546.518 -533.376 546.514 -536.983 548.861C-538.943 550.119 -538.582 555.406 -538.761 558.89C-539.103 563.956 -539.091 569.033 -539.242 576.026C-537.626 576.121 -531.179 577.228 -530.914 576.372C-529.216 570.03 -527.946 563.581 -527.113 557.069ZM-374.389 344.644L-373.316 348.683L-351.894 342.945L-348.991 347.297L-325.256 336.15C-328.347 330.712 -331.164 328.871 -336.934 331.238C-349.173 336.2 -361.86 340.225 -374.389 344.644ZM-54.3917 301.916C-54.9198 298.701 -55.2775 296.579 -55.6105 294.527L-42.1018 295.157C-50.5661 283.346 -59.4661 285.644 -67.9412 290.588C-71.7949 292.846 -74.501 297.085 -77.718 300.428L-75.8691 302.845L-54.3917 301.916ZM-509.145 495.278L-529.251 511.674L-531.192 509.993L-531.577 521.642C-513.69 515.021 -503.001 501.008 -509.145 495.278ZM-556.501 367.435C-567.292 356.562 -554.685 353.914 -549.499 348.508L-552.56 346.089L-573.124 364.678L-574.896 363.642C-574.158 359.863 -573.409 356.094 -572.651 352.334L-575.85 352.074C-575.969 357.277 -578.37 364.261 -575.886 367.372C-571.646 372.855 -564.28 372.524 -556.501 367.435ZM-570.025 437.392C-560.396 431.455 -550.309 429.696 -544.708 421.368L-545.838 418.717L-568.906 423.061L-570.025 437.392ZM-61.3862 439.194C-65.5639 430.894 -68.9027 424.253 -72.2414 417.612C-80.0359 424.485 -81.7098 432.425 -77.6858 444.278C-76.7032 440.804 -75.6817 437.218 -74.6429 433.627L-72.0468 435.448L-61.3862 439.194ZM-628.358 634.86L-630.807 633.457C-634.911 639.38 -639.186 645.208 -643.031 651.314C-643.369 652.163 -643.526 653.074 -643.493 653.988C-643.46 654.901 -643.237 655.798 -642.84 656.621C-641.688 658.575 -640.309 660.385 -638.73 662.013C-637.281 660.386 -636.023 658.598 -634.982 656.684C-633.962 654.37 -634.445 650.064 -632.96 649.345C-625.475 645.747 -628.952 639.878 -628.358 634.86ZM-486.525 426.512C-486.357 422.592 -486.589 418.666 -487.219 414.794C-487.434 413.853 -492.114 412.826 -493.742 413.694C-496.826 415.309 -499.169 418.305 -503.013 421.811C-502.716 423.152 -502.044 426.219 -501.306 429.477L-486.525 426.512ZM-508.767 485.88C-511.924 481.638 -514.663 477.971 -517.402 474.305L-521.943 485.914L-535.877 492.666L-533.987 496.749L-508.767 485.88ZM-180.936 357.669L-169.272 346.088C-175.566 346.08 -179.684 346.868 -183.326 345.904C-193.702 343.133 -200.724 347.818 -202.243 359.3C-195.069 350.945 -188.339 347.203 -180.911 357.738L-180.936 357.669ZM-315.027 352.577C-338.171 354.876 -338.171 354.876 -335.586 374.058L-329.538 363.95L-331.735 362.653L-315.027 352.577ZM-469.898 250.066L-470.787 246.881C-474.869 247.109 -479.001 247.081 -483.047 247.687C-487.093 248.293 -491.77 251.096 -495.533 250.233C-503.367 248.462 -504.675 252.011 -504.445 258.537L-469.898 250.066ZM-163.457 391.437C-154.318 391.478 -137.741 376.601 -137.651 363.337C-141.093 366.118 -144.376 369.09 -147.485 372.239C-153.234 378.762 -158.624 385.53 -163.509 391.456L-163.457 391.437ZM-626.269 684.436C-613.691 686.86 -610.042 684.576 -608.955 674.694C-608.954 673.703 -609.161 672.724 -609.561 671.818C-609.961 670.912 -610.546 670.1 -611.279 669.434C-612.036 668.783 -615.141 669.565 -615.985 670.606C-619.428 674.693 -622.404 679.163 -626.269 684.436ZM-487.854 552.82C-484.09 554.554 -480.482 556.611 -477.07 558.965C-471.047 563.799 -470.016 563.788 -465.212 556.523C-468.201 555.251 -472.091 554.746 -474.023 552.535C-478.804 547.067 -482.277 546.806 -487.854 552.82ZM-81.3641 481.325C-85.352 476.223 -72.8095 469.571 -82.1474 464.811L-95.7214 484.161L-93.6322 485.652L-81.3641 481.325ZM-49.844 404.943C-52.2548 406.227 -54.5337 407.744 -56.6478 409.473C-58.0319 411.265 -59.2156 413.203 -60.1778 415.253L-43.8538 421.927L-49.844 404.943ZM-419.54 382.656L-418.774 385.826C-408.359 377.129 -403.397 389.648 -394.747 390.741C-399.253 379.625 -404.677 376.378 -415.568 378.128C-417.103 378.376 -418.291 381.101 -419.54 382.656ZM5.44536 165.332C9.76687 166.505 14.7181 166.694 18.0306 169.161C21.3432 171.628 22.5274 176.371 25.0477 179.86C26.1167 181.34 28.1292 182.116 30.807 183.947C21.5657 164.005 16.4309 159.972 5.44536 165.332ZM-156.133 294.426L-158.296 291.729L-176.47 296.594L-162.199 303.817L-156.133 294.426ZM-90.3707 126.335C-99.414 119.751 -110.467 120.542 -121.747 127.784L-90.3707 126.335ZM-455.948 404.019L-440.057 414.227C-441.57 403.014 -448.072 399.149 -455.878 403.994L-455.948 404.019ZM-495.902 402.473C-499.547 403.993 -503.481 405.361 -507.112 407.307C-507.806 407.802 -508.395 408.431 -508.843 409.157C-509.292 409.882 -509.592 410.689 -509.726 411.532C-509.857 412.379 -508.199 414.199 -507.074 414.506C-502.619 415.339 -495.535 407.172 -495.857 402.379L-495.902 402.473ZM-617.178 614.928L-617.891 611.466C-622.406 611.83 -626.894 612.485 -631.325 613.428C-631.951 613.649 -631.522 617.857 -631.61 621.152L-617.178 614.928ZM-641.339 691.178L-637.941 693.889L-627.577 679.62L-631.491 676.778L-641.339 691.178ZM-19.1792 262.816C-27.5704 245.838 -28.7581 244.908 -36.6309 247.958L-19.1792 262.816ZM-302.034 328.976L-317.412 336.12C-309.199 340.905 -304.47 337.361 -302.053 328.924L-302.034 328.976ZM-624.235 589.212C-621.849 576.643 -622.829 575.249 -632.738 576.183C-629.595 580.938 -626.925 585.02 -624.318 589.143L-624.235 589.212ZM-166.394 162.237L-169.028 164.573C-167.182 167.147 -165.446 171.793 -163.457 171.893C-159.24 172.106 -154.918 169.956 -150.325 168.688L-166.394 162.237ZM-495.442 239.079C-485.772 242.842 -481.79 240.891 -477.142 230.026L-495.442 239.079ZM-506.698 548.363C-502.73 549.974 -500.288 551.967 -498.126 551.673C-492.214 551.093 -489.421 547.489 -489.838 543.648L-506.698 548.363ZM-56.2144 325.721L-55.2875 327.739C-51.6649 326.266 -47.696 325.277 -44.6048 323.073C-43.465 322.26 -44.3978 318.563 -44.3544 313.7L-56.2144 325.721ZM-347.494 383.672C-360.279 384.096 -362.113 386.874 -357.819 394.839L-347.494 383.672ZM-556.155 334.124C-564.382 334.562 -569.574 337.625 -568.222 347.996L-556.155 334.124ZM-618.938 622.899L-618.294 637.136C-611.228 626.258 -611.42 624.938 -618.938 622.899ZM-80.8271 329.671L-79.1018 331.017L-71.4385 328.315C-71.8214 324.736 -72.1821 321.442 -72.5426 318.149L-74.6727 317.649L-80.8271 329.671ZM-288.138 186.117L-272.047 180.442C-277.393 174.646 -281.834 175.626 -288.068 186.093L-288.138 186.117ZM-235.228 257.135L-250.713 269.183C-244.75 266.865 -235.933 267.88 -235.159 257.11L-235.228 257.135Z" stroke="#A1C9E6" stroke-miterlimit="10"/>
</g>
<defs>
<clipPath id="clip0_36_4301">
<rect width="846" height="626" fill="white" transform="translate(-804 281.39) rotate(-19.4274)"/>
</clipPath>
</defs>
</svg>
