<svg width="130" height="340" viewBox="0 0 130 340" fill="none" xmlns="http://www.w3.org/2000/svg">
<g clip-path="url(#clip0_195_1574)">
<path d="M122.178 80.0708L128.883 83.067L128.254 85.4815L135.236 87.8457C134.33 86.8338 133.682 86.0982 133.021 85.3753C132.255 84.5377 131.475 83.7127 130.705 82.8878C131.448 82.5282 132.34 82.3261 132.91 81.7837C134.198 80.5744 135.385 79.2618 136.459 77.8589C137.749 76.1504 139.796 75.9673 141.346 77.5917C141.742 77.1382 142.07 76.4043 142.584 76.2142C146.655 74.7016 150.679 72.7263 154.905 72.0333C158.846 71.3781 163.03 72.0138 167.079 72.3946C167.584 72.4422 167.907 74.3998 168.422 75.7507L163.128 75.6097L170.272 79.7954C173.423 75.6832 173.423 75.6832 176.776 78.0537C176.731 75.2943 179.838 73.2493 182.15 74.3954L180.797 81.3764C181.909 81.6416 183.05 81.9366 184.213 82.1509C185.376 82.3652 186.818 82.9451 187.981 82.684C189.863 82.2585 190.716 82.2983 190.261 84.5559C190.145 85.1288 190.683 85.8302 191.582 86.3073C191.613 85.5729 191.64 84.8428 191.684 84.1127C191.813 81.7993 192.046 80.0846 195.285 79.7975C197.621 79.5894 198.136 80.5327 199.11 81.9778C199.791 82.9936 200.905 84.1546 201.987 84.356C204.474 84.8189 207.055 84.7302 209.479 84.8576L206.216 82.0753L206.506 81.4136C209.96 82.0905 213.406 82.8014 216.873 83.3976C217.178 83.4491 217.604 82.7876 217.97 82.4401L217.974 82.4869L219.808 80.6604L220.423 80.9799L219.924 84.0186L223.011 83.7142C223.772 84.8193 224.296 85.924 225.127 86.6896C225.881 87.3787 226.976 87.6947 227.887 88.1761L227.473 89.1984L222.594 87.8058L223.5 90.8258L222.999 91.173L218.604 87.6714L218.715 91.2885L206.518 85.8499L205.935 86.4305L209.372 93.1737C212.22 91.3109 214.177 91.1319 216.052 93.6526C216.95 94.8598 218.961 95.1945 219.99 96.3468C220.909 97.3715 221.178 98.9852 221.853 100.642C223.263 100.449 225.354 99.3068 226.796 101.81C226.987 102.145 229.001 101.308 230.164 101.234C231.616 101.24 233.067 101.322 234.511 101.48C233.497 103.015 232.905 103.926 232.296 104.829L227.623 104.494L227.472 105.415L232.479 106.681C233.776 105.609 235.349 104.559 236.562 103.19C237.013 102.681 236.625 101.432 236.598 100.155C237.258 100.576 237.84 101.108 238.318 101.728C239.435 103.632 240.356 105.629 241.336 107.635C241.515 108.126 241.643 108.634 241.719 109.151L235.203 105.323L234.747 105.878C236.606 107.957 238.402 110.1 240.359 112.082C240.664 112.361 241.023 112.574 241.414 112.708C241.806 112.841 242.22 112.893 242.632 112.858C243.07 112.779 243.722 111.544 243.592 110.988C242.898 107.994 241.996 105.046 241.178 102.116L242.6 102.267L241.545 99.5054L241.507 99.5435L245.45 101.546L243.844 102.485C244.439 103.934 244.916 105.391 245.566 106.768C247.337 110.392 248.807 114.037 251.865 117.082C256.609 121.845 257.41 128.656 258.648 134.894C259.652 139.986 262.489 143.472 265.707 146.993C265.847 147.133 265.97 147.367 266.131 147.418C273.276 149.095 274.123 156.216 277.67 160.96C279.393 163.414 280.778 166.09 281.787 168.914C282.488 170.758 282.504 172.927 282.894 175.377L284.173 173.002C288.044 179.007 292.992 184.017 293.566 191.29C293.888 195.417 296.042 198.448 298.311 201.704C300.939 205.491 302.784 209.82 304.885 213.963C305.022 214.278 305.086 214.619 305.072 214.963C305.059 215.306 304.969 215.641 304.809 215.945C302.973 218.468 303.715 221.016 304.333 223.696C305.212 227.497 303.198 230.537 300.883 233.131C296.678 237.827 291.187 240.815 285.358 242.885C282.189 244.008 278.61 243.947 275.234 244.497C274.651 244.618 274.104 244.873 273.636 245.241C270.017 247.998 266.31 250.649 262.814 253.581C261.746 254.475 261.238 256.066 260.543 257.376C259.528 259.302 258.743 261.38 257.546 263.182C255.889 265.68 253.995 268.126 250.343 266.332L248.553 269.725L252.347 268.565C253.175 270.392 253.786 272.214 251.927 274.151C250.344 275.727 249.383 278.701 247.62 279.186C242.913 280.485 241.069 285.415 236.689 286.863C236.451 286.955 236.236 287.095 236.056 287.274C235.875 287.454 235.735 287.669 235.642 287.906C234.15 292.721 229.97 292.065 226.378 292.415C223.996 292.644 221.861 292.5 220.619 289.577C219.567 287.109 215.899 287.034 213.544 288.601C212.141 289.541 210.353 289.89 208.747 290.592C206.304 291.653 203.886 292.799 201.442 293.869C197.21 295.721 193.484 298.966 188.488 298.681C185.929 298.537 183.386 298.188 180.836 297.976C176.901 297.659 172.898 297.537 168.99 296.914C167.53 296.674 166.093 295.462 164.958 294.364C163.149 292.616 161.6 290.601 159.944 288.692L159.238 289.048L160.116 293.256C157.386 293.706 155.788 292.629 154.013 290.864C151.264 288.104 147.957 285.882 144.893 283.461C144.558 283.201 144.037 282.746 143.728 282.453C129.112 268.698 114.441 254.998 99.8968 241.162C88.2253 230.066 88.5895 230.508 77.1521 219.178C75.123 217.141 72.9494 215.231 70.8436 213.33C66.6067 209.51 60.1163 205.377 59.1319 199.3C58.713 196.735 59.4403 194.13 59.5521 191.536C59.8656 184.023 54.4843 179.352 50.7527 173.512C47.1819 167.919 44.2191 161.899 39.2113 157.305C38.3936 156.552 38.0823 155.227 37.6007 154.139C36.2404 151.072 34.8802 148.004 33.5964 144.903C33.1952 143.93 32.6036 142.664 32.9068 141.82C34.7394 136.606 33.2051 131.551 32.4563 126.477C31.8538 122.417 31.8368 118.52 33.9292 114.843C33.9728 114.764 34.0017 114.678 34.0146 114.589C34.8386 108.541 39.9041 106.139 43.9952 102.843C45.6496 101.565 47.0558 99.9951 48.1443 98.2105C51.3319 92.621 56.3704 88.9493 61.1973 85.0395C61.3369 84.8843 61.5163 84.7702 61.7159 84.7094C68.2974 84.0843 74.6102 82.0323 81.6152 83.7981C85.1241 84.6831 89.7352 84.2922 93.7781 83.6371C95.0394 83.4314 96.2509 82.7161 97.4906 82.6674C98.31 82.6391 99.1829 83.3454 99.3949 83.4391C97.5904 85.533 96.1562 87.1904 94.7262 88.8435L95.4204 89.8041C96.1211 89.6993 97.2883 89.799 97.4588 89.4682C98.7685 86.5286 100.763 87.0245 103.434 88.6L102.499 84.8286C104.089 84.0927 105.657 83.2083 107.318 82.5702C108.177 82.2491 109.199 82.391 110.151 82.2908C112.805 81.9772 115.643 82.5468 117.488 79.5572C119.077 76.9917 120.686 79.0408 122.152 80.0962C121.09 80.7905 120.056 81.5061 118.981 82.1707C118.071 82.7294 117.128 83.2202 115.538 84.1174L121.466 83.1855L122.178 80.0708ZM132.907 114.735L134.666 117.854C137.376 116.849 139.828 115.991 142.288 115.108L144.97 121.332C145.982 120.646 146.735 119.896 147.627 119.601C148.519 119.305 150.044 118.981 150.556 119.453C151.302 120.151 151.541 121.522 151.734 122.652C151.957 123.911 152.553 125.073 153.445 125.988C154.337 126.904 155.484 127.529 156.736 127.785C155.423 124.671 153.353 121.835 155.217 118.031C156.338 115.753 154.733 113.878 152.19 113.852C150.822 113.932 149.464 114.149 148.139 114.499C147.529 115.954 147.208 116.798 146.867 117.63C146.151 116.911 145.04 116.281 144.826 115.427C144.274 113.172 143.82 111.473 140.921 113.072C140.249 113.445 139.083 112.802 138.145 112.838C136.192 112.911 133.698 111.718 132.927 114.875L129.928 114.22L130.911 116.969L127.74 116.738C130.194 118.776 132.13 120.55 134.241 122.073C135.208 122.689 136.319 123.042 137.465 123.098C138.05 123.141 139.237 122.324 139.216 121.963C139.06 120.82 138.686 119.717 138.115 118.714C137.378 118.738 136.665 118.982 136.068 119.415C134.668 120.809 133.688 120.361 133.237 118.777C132.867 117.486 133.001 116.089 132.907 114.735ZM230.693 213.232L229.769 212.56C228.89 212.588 227.855 212.34 227.12 212.657C224.545 213.824 222.988 213.104 221.448 210.758C220.75 209.7 218.803 209.004 217.411 208.993C216.018 208.982 214.56 210.011 213.2 210.561L226.553 219.516C227.822 217.608 229.258 215.424 230.68 213.219L230.693 213.232ZM173.818 167.448C171.864 163.964 168.964 166.226 166.438 166.37C163.911 166.514 161.184 167.239 158.56 167.71L158.723 168.827C160.421 168.66 162.2 168.752 163.801 168.284C167.811 167.153 171.565 166.795 174.516 170.472C175.905 169.876 177.155 169.335 178.387 168.802C176.944 164.605 176.796 164.558 173.818 167.448ZM102.69 120.043L102.806 119.767L106.551 119.426C105.636 118.235 104.918 116.723 103.722 115.991C103.078 115.59 101.573 116.437 100.524 116.872C98.9856 117.481 97.494 118.196 95.416 119.13C95.6145 119.619 96.1916 121.67 96.4804 121.628C98.5835 121.239 100.658 120.71 102.69 120.043ZM186.556 135.216L185.518 136.097L190.205 141.594L189.332 143.057L195.934 148.478C197.101 146.807 197.248 145.721 195.743 144.355C192.57 141.45 189.61 138.282 186.556 135.216ZM243.933 223.351C244.805 222.745 245.379 222.343 245.936 221.958L247.642 226.019C249.931 221.876 248.008 219.58 245.367 217.779C244.164 216.962 242.538 216.76 241.104 216.282L240.652 217.164L243.933 223.351ZM123.38 116.675L115.743 113.057L115.965 112.251L112.485 113.769C116.937 118.103 122.555 119.284 123.38 116.675ZM154.35 84.8444C156.038 80.1479 158.582 83.485 160.898 84.2532L161.181 83.0141L152.834 79.5691L152.89 78.9028C154.105 78.5908 155.318 78.283 156.53 77.9795L156.159 77.0025C154.612 77.6959 152.222 77.9676 151.654 79.134C150.635 81.1487 151.764 83.2691 154.35 84.8444ZM131.881 90.6629C134.975 92.6636 136.905 95.384 140.139 95.8652L140.76 95.1616L136.253 88.9852L131.881 90.6629ZM202.577 240.517C204.433 238.126 205.919 236.214 207.405 234.302C204.292 232.972 201.722 233.592 198.799 236.435C199.959 236.238 201.156 236.036 202.358 235.839L202.186 236.857L202.577 240.517ZM65.6325 101.158L65.7024 100.241C63.3853 99.8635 61.0726 99.4221 58.7383 99.1463C58.4412 99.166 58.1514 99.2473 57.8873 99.3849C57.6232 99.5226 57.3905 99.7136 57.2041 99.9459C56.7906 100.558 56.4514 101.217 56.1937 101.91C56.8751 102.108 57.5771 102.228 58.2858 102.266C59.1094 102.242 60.3082 101.497 60.7278 101.833C62.8339 103.53 64.0734 101.686 65.6325 101.158ZM146.774 113.698C147.95 113.199 149.072 112.581 150.123 111.853C150.37 111.659 150.016 110.138 149.533 109.781C148.626 109.1 147.417 108.83 145.847 108.191C145.495 108.466 144.687 109.093 143.832 109.766L146.774 113.698ZM126.198 115.47C127.003 113.948 127.698 112.629 128.393 111.31L124.342 111.6L120.405 108.447L119.469 109.574L126.198 115.47ZM209.815 193.939L214.854 195.748C213.975 193.895 213.167 192.794 212.94 191.588C212.302 188.149 209.941 186.739 206.351 187.9C209.813 188.84 211.856 190.296 209.798 193.956L209.815 193.939ZM192.535 153.787C188.618 147.301 188.618 147.301 183.338 150.748L187.158 151.111L187.232 150.283L192.535 153.787ZM200.998 93.8805L201.811 93.173C201.172 92.0044 200.602 90.785 199.857 89.6799C199.112 88.5749 197.633 87.5916 197.36 86.3642C196.784 83.8119 195.557 83.9243 193.669 84.9059L200.998 93.8805ZM202.33 203.808C203.598 206.502 210.295 209.295 214.209 207.463C212.909 206.841 211.575 206.291 210.213 205.818C207.49 205.04 204.744 204.403 202.317 203.796L202.33 203.808ZM51.3437 108.715C52.3919 112.754 53.5747 113.507 56.6336 112.443C56.9249 112.304 57.1841 112.107 57.3945 111.862C57.6048 111.617 57.7617 111.332 57.855 111.023C57.9406 110.709 57.2759 109.905 56.8516 109.803C55.1672 109.362 53.4357 109.113 51.3437 108.715ZM109.438 130.995C109.454 132.345 109.355 133.694 109.14 135.027C108.562 137.476 108.71 137.777 111.519 138.173C111.475 137.116 111.078 135.901 111.458 135.023C112.397 132.851 111.987 131.793 109.438 130.995ZM187.388 240.541C188.33 238.654 192.043 241.411 192.135 237.998L184.543 236.715L184.397 237.539L187.388 240.541ZM214.267 239.116C213.552 238.586 212.787 238.129 211.982 237.749C211.261 237.593 210.525 237.516 209.788 237.52L210.111 243.256L214.267 239.116ZM169.053 127.259L168.228 127.928C172.244 129.774 169.257 132.986 170.147 135.683C172.785 132.801 172.981 130.751 170.941 127.793C170.653 127.376 169.685 127.409 169.053 127.259ZM292.485 221.824C292.745 223.259 293.383 224.742 293.121 226.062C292.859 227.382 291.63 228.394 290.956 229.624C290.671 230.146 290.725 230.846 290.561 231.89C295.132 226.38 295.6 224.305 292.485 221.824ZM231.889 192.378L232.379 191.364L228.403 186.7L228.277 191.908L231.889 192.378ZM290.537 188.182C291.207 184.6 289.427 181.459 285.717 179.156L290.537 188.182ZM157.671 119.542L156.894 125.645C159.98 123.63 160.206 121.177 157.688 119.559L157.671 119.542ZM152.531 107.574C151.573 106.715 150.62 105.75 149.539 104.954C149.296 104.819 149.029 104.734 148.753 104.704C148.477 104.673 148.197 104.698 147.931 104.777C147.663 104.857 147.36 105.6 147.427 105.973C147.806 107.4 151.2 108.34 152.565 107.574L152.531 107.574ZM73.0605 101.655L73.979 100.961C73.2397 99.6834 72.4185 98.4553 71.5205 97.2841C71.368 97.131 70.1905 97.8464 69.2089 98.2819L73.0605 101.655ZM47.2503 105.226L46.9289 106.605L52.577 107.655L52.8648 106.106L47.2503 105.226ZM260.364 228.232C264.183 223.387 264.29 222.907 262.29 221.019L260.364 228.232ZM201.296 154.303L197.041 150.781C196.784 153.866 198.489 154.761 201.309 154.29L201.296 154.303ZM79.636 95.9783C83.667 94.9199 83.9397 94.4365 82.2774 91.6529C81.3188 93.2431 80.4922 94.6001 79.6445 95.9444L79.636 95.9783ZM269.332 170.849L268.276 170.401C267.777 171.305 266.654 172.466 266.903 173.065C267.431 174.335 268.668 175.305 269.685 176.479L269.332 170.849ZM200.653 84.8291C200.9 88.2003 202.032 89.098 205.878 88.9435L200.653 84.8291ZM108.11 124.828C108.191 126.221 107.947 127.218 108.337 127.813C109.335 129.471 110.786 129.787 111.857 129.127L108.11 124.828ZM236.676 226.148L236.212 226.704C237.153 227.563 238 228.592 239.081 229.192C239.479 229.414 240.436 228.621 241.873 227.953L236.676 226.148ZM178.843 148.592C176.928 144.891 175.854 144.74 174.112 147.119L178.843 148.592ZM164.197 80.2813C162.915 77.923 161.288 76.8248 158.427 78.6749L164.197 80.2813ZM70.4696 102.253L66.3725 104.437C70.5613 104.992 70.9227 104.75 70.4696 102.253ZM232.068 219.462L231.913 220.158L233.781 222.034C234.78 221.42 235.699 220.853 236.617 220.286L236.466 219.589L232.068 219.462ZM245.26 138.385L249.182 142.323C250.138 139.939 249.228 138.77 245.277 138.402L245.26 138.385ZM231.781 163.892L226.069 161.025C227.586 162.454 228.522 165.19 231.798 163.909L231.781 163.892Z" stroke="#A1C9E6" stroke-width="0.325756" stroke-miterlimit="10"/>
</g>
<defs>
<clipPath id="clip0_195_1574">
<rect width="275.59" height="203.923" fill="white" transform="translate(145) rotate(45.1132)"/>
</clipPath>
</defs>
</svg>
