<svg width="199" height="1042" viewBox="0 0 199 1042" fill="none" xmlns="http://www.w3.org/2000/svg">
<g clip-path="url(#clip0_36_4299)">
<path d="M373.941 246.248L394.524 255.446L392.592 262.858L414.027 270.116C411.245 267.009 409.256 264.751 407.228 262.532C404.875 259.961 402.482 257.428 400.116 254.896C402.399 253.792 405.137 253.171 406.887 251.507C410.841 247.794 414.485 243.765 417.782 239.458C421.742 234.213 428.024 233.651 432.783 238.638C433.998 237.246 435.006 234.993 436.584 234.409C449.079 229.766 461.434 223.702 474.405 221.575C486.503 219.564 499.348 221.515 511.778 222.684C513.328 222.83 514.319 228.84 515.9 232.987L499.65 232.554L521.581 245.403C531.252 232.779 531.252 232.779 541.544 240.056C541.406 231.585 550.946 225.308 558.041 228.826L553.889 250.256C557.302 251.07 560.805 251.976 564.375 252.634C567.944 253.292 572.371 255.072 575.943 254.27C581.719 252.964 584.338 253.086 582.942 260.017C582.586 261.775 584.237 263.928 586.996 265.393C587.092 263.139 587.175 260.897 587.311 258.656C587.704 251.554 588.419 246.291 598.364 245.409C605.533 244.77 607.117 247.666 610.104 252.102C612.196 255.221 615.616 258.785 618.937 259.403C626.571 260.824 634.495 260.552 641.935 260.943L631.919 252.402L632.81 250.371C643.413 252.448 653.99 254.631 664.633 256.461C665.571 256.619 666.879 254.588 668.002 253.522L668.015 253.665L673.644 248.058L675.531 249.039L673.999 258.367L683.475 257.433C685.814 260.825 687.422 264.216 689.971 266.567C692.286 268.682 695.647 269.652 698.445 271.13L697.174 274.268L682.197 269.993L684.979 279.264L683.439 280.33L669.948 269.58L670.289 280.684L632.845 263.989L631.056 265.771L641.606 286.471C650.35 280.753 656.359 280.203 662.115 287.941C664.87 291.647 671.044 292.675 674.204 296.212C677.025 299.358 677.848 304.311 679.922 309.397C684.25 308.806 690.669 305.299 695.096 312.982C695.681 314.013 701.863 311.443 705.434 311.215C709.892 311.232 714.346 311.483 718.777 311.969C715.666 316.681 713.848 319.479 711.978 322.252L697.633 321.223L697.17 324.05L712.539 327.935C716.521 324.645 721.35 321.421 725.073 317.219C726.458 315.657 725.268 311.824 725.185 307.901C727.211 309.194 728.998 310.829 730.465 312.732C733.893 318.577 736.721 324.707 739.731 330.863C740.279 332.371 740.673 333.93 740.906 335.517L720.902 323.766L719.504 325.471C725.211 331.854 730.722 338.432 736.73 344.515C737.666 345.372 738.769 346.026 739.97 346.436C741.171 346.846 742.444 347.004 743.71 346.899C745.052 346.654 747.055 342.865 746.654 341.157C744.524 331.966 741.755 322.917 739.246 313.921L743.611 314.385L740.371 305.908L740.254 306.025L752.36 312.172L747.428 315.056C749.256 319.503 750.718 323.976 752.716 328.202C758.152 339.327 762.663 350.517 772.052 359.864C786.616 374.486 789.072 395.393 792.875 414.544C795.956 430.175 804.664 440.876 814.544 451.684C814.974 452.115 815.35 452.832 815.845 452.99C837.779 458.137 840.377 479.996 851.266 494.559C856.556 502.094 860.808 510.307 863.906 518.977C866.057 524.637 866.108 531.296 867.303 538.818L871.229 531.527C883.113 549.962 898.301 565.341 900.064 587.667C901.053 600.336 907.666 609.639 914.629 619.634C922.696 631.26 928.362 644.55 934.812 657.267C935.231 658.234 935.427 659.283 935.386 660.336C935.346 661.39 935.069 662.42 934.577 663.352C928.943 671.096 931.22 678.92 933.118 687.146C935.816 698.814 929.632 708.147 922.525 716.11C909.618 730.527 892.761 739.697 874.868 746.051C865.138 749.5 854.153 749.311 843.789 751C841.999 751.372 840.32 752.154 838.884 753.285C827.775 761.749 816.394 769.886 805.662 778.885C802.385 781.629 800.824 786.513 798.691 790.536C795.576 796.447 793.165 802.829 789.491 808.361C784.404 816.027 778.589 823.536 767.381 818.03L761.884 828.446L773.53 824.883C776.072 830.491 777.949 836.085 772.241 842.03C767.383 846.87 764.431 856 759.019 857.489C744.572 861.477 738.909 876.61 725.463 881.056C724.735 881.337 724.073 881.767 723.52 882.318C722.967 882.869 722.535 883.529 722.25 884.256C717.67 899.039 704.838 897.022 693.811 898.097C686.498 898.801 679.944 898.359 676.133 889.387C672.904 881.809 661.645 881.581 654.415 886.39C650.108 889.275 644.619 890.347 639.689 892.502C632.188 895.759 624.765 899.277 617.265 902.561C604.273 908.246 592.835 918.208 577.499 917.334C569.642 916.89 561.838 915.82 554.007 915.168C541.928 914.195 529.64 913.821 517.642 911.91C513.161 911.173 508.751 907.451 505.266 904.082C499.713 898.716 494.957 892.531 489.874 886.67L487.708 887.761L490.404 900.681C482.021 902.06 477.116 898.754 471.667 893.336C463.228 884.864 453.078 878.043 443.672 870.611C442.644 869.815 441.044 868.417 440.095 867.516C395.227 825.292 350.189 783.236 305.543 740.764C269.714 706.7 270.832 708.057 235.721 673.278C229.493 667.025 222.82 661.161 216.356 655.325C203.35 643.599 183.425 630.91 180.403 612.256C179.117 604.382 181.35 596.384 181.693 588.423C182.656 565.358 166.136 551.02 154.681 533.093C143.72 515.924 134.625 497.442 119.252 483.34C116.741 481.029 115.786 476.961 114.308 473.622C110.132 464.206 105.956 454.79 102.015 445.269C100.783 442.283 98.9674 438.396 99.8983 435.804C105.524 419.798 100.814 404.282 98.5152 388.705C96.6657 376.243 96.6136 364.28 103.037 352.993C103.17 352.75 103.259 352.485 103.299 352.211C105.828 333.645 121.378 326.271 133.937 316.154C139.016 312.231 143.333 307.412 146.674 301.933C156.459 284.775 171.926 273.503 186.744 261.501C187.172 261.025 187.723 260.674 188.336 260.488C208.539 258.569 227.919 252.27 249.422 257.69C260.194 260.407 274.349 259.207 286.76 257.196C290.632 256.565 294.351 254.369 298.156 254.219C300.671 254.133 303.351 256.3 304.002 256.588C298.463 263.016 294.06 268.104 289.67 273.178L291.801 276.128C293.952 275.806 297.535 276.112 298.059 275.096C302.079 266.072 308.201 267.595 316.4 272.431L313.532 260.854C318.411 258.595 323.226 255.88 328.325 253.921C330.96 252.935 334.1 253.371 337.02 253.063C345.167 252.1 353.881 253.849 359.544 244.672C364.422 236.796 369.36 243.086 373.862 246.326C370.6 248.458 367.428 250.654 364.127 252.695C361.334 254.41 358.438 255.916 353.558 258.67L371.757 255.81L373.941 246.248ZM406.875 352.66L412.276 362.235C420.597 359.148 428.122 356.516 435.673 353.806L443.907 372.912C447.013 370.806 449.325 368.504 452.063 367.596C454.802 366.689 459.483 365.694 461.056 367.143C463.345 369.285 464.079 373.495 464.671 376.963C465.356 380.827 467.186 384.395 469.924 387.205C472.662 390.014 476.182 391.936 480.027 392.719C475.995 383.16 469.642 374.456 475.362 362.777C478.805 355.785 473.878 350.029 466.072 349.95C461.871 350.195 457.705 350.86 453.635 351.935C451.762 356.402 450.779 358.993 449.731 361.546C447.533 359.339 444.123 357.404 443.464 354.784C441.772 347.861 440.376 342.646 431.478 347.556C429.416 348.699 425.837 346.725 422.956 346.837C416.961 347.061 409.306 343.398 406.94 353.09L397.73 351.08L400.748 359.517L391.015 358.809C398.547 365.064 404.491 370.509 410.971 375.186C413.94 377.076 417.351 378.16 420.868 378.331C422.666 378.465 426.307 375.956 426.245 374.848C425.764 371.338 424.617 367.952 422.865 364.873C420.602 364.949 418.414 365.698 416.579 367.025C412.282 371.305 409.275 369.931 407.891 365.068C406.753 361.104 407.166 356.817 406.875 352.66ZM707.059 655.025L704.222 652.96C701.524 653.047 698.346 652.285 696.09 653.259C688.185 656.841 683.407 654.631 678.679 647.429C676.535 644.18 670.558 642.045 666.284 642.011C662.01 641.978 657.533 645.137 653.359 646.823L694.35 674.315C698.246 668.458 702.652 661.754 707.02 654.985L707.059 655.025ZM532.463 514.478C526.466 503.781 517.563 510.725 509.808 511.167C502.053 511.609 493.682 513.836 485.625 515.281L486.126 518.709C491.34 518.197 496.8 518.481 501.716 517.043C514.025 513.572 525.548 512.472 534.607 523.761C538.872 521.931 542.707 520.269 546.49 518.634C542.061 505.751 541.605 505.607 532.463 514.478ZM314.118 368.954L314.472 368.108L325.968 367.059C323.161 363.405 320.956 358.762 317.286 356.514C315.308 355.286 310.689 357.884 307.467 359.22C302.745 361.089 298.167 363.283 291.788 366.152C292.397 367.651 294.169 373.949 295.055 373.82C301.511 372.627 307.88 371.001 314.118 368.954ZM571.566 415.532L568.38 418.237L582.77 435.112L580.088 439.604L600.356 456.242C603.938 451.114 604.388 447.779 599.771 443.587C590.029 434.669 580.941 424.944 571.566 415.532ZM747.703 686.087C750.378 684.228 752.14 682.993 753.85 681.81L759.088 694.278C766.114 681.558 760.212 674.51 752.105 668.984C748.41 666.475 743.42 665.853 739.018 664.386L737.631 667.094L747.703 686.087ZM377.632 358.615L354.186 347.51L354.869 345.035L344.186 349.694C357.853 362.998 375.099 366.626 377.632 358.615ZM472.703 260.902C477.882 246.485 485.692 256.729 492.802 259.087L493.671 255.284L468.047 244.708L468.221 242.663C471.95 241.705 475.675 240.76 479.395 239.828L478.255 236.829C473.507 238.958 466.168 239.792 464.427 243.373C461.299 249.557 464.764 256.066 472.703 260.902ZM403.726 278.764C413.226 284.905 419.15 293.256 429.077 294.734L430.985 292.574L417.147 273.614L403.726 278.764ZM620.749 738.783C626.447 731.443 631.008 725.574 635.568 719.705C626.012 715.622 618.124 717.524 609.152 726.252C612.711 725.646 616.387 725.027 620.076 724.421L619.548 727.548L620.749 738.783ZM200.359 310.982L200.573 308.167C193.461 307.008 186.361 305.653 179.195 304.806C178.283 304.866 177.394 305.116 176.583 305.538C175.772 305.961 175.058 306.547 174.486 307.26C173.216 309.14 172.175 311.163 171.384 313.289C173.476 313.898 175.631 314.265 177.806 314.382C180.335 314.308 184.014 312.021 185.302 313.053C191.768 318.264 195.573 312.602 200.359 310.982ZM449.444 349.478C453.055 347.945 456.501 346.047 459.726 343.814C460.483 343.216 459.398 338.548 457.915 337.451C455.131 335.361 451.419 334.534 446.601 332.57C445.518 333.415 443.037 335.34 440.414 337.407L449.444 349.478ZM386.28 354.917C388.753 350.243 390.886 346.193 393.019 342.144L380.585 343.035L368.499 333.357L365.625 336.818L386.28 354.917ZM642.966 595.798L658.436 601.351C655.738 595.664 653.256 592.285 652.56 588.582C650.602 578.023 643.353 573.697 632.333 577.261C642.961 580.147 649.233 584.615 642.914 595.85L642.966 595.798ZM589.921 472.54C577.897 452.632 577.897 452.632 561.688 463.211L573.414 464.326L573.641 461.785L589.921 472.54ZM615.902 288.641L618.396 286.469C616.436 282.882 614.685 279.139 612.399 275.746C610.113 272.354 605.571 269.336 604.732 265.568C602.964 257.733 599.197 258.078 593.404 261.091L615.902 288.641ZM619.99 626.095C623.882 634.365 644.441 642.937 656.455 637.315C652.465 635.403 648.37 633.717 644.19 632.263C635.829 629.877 627.402 627.92 619.951 626.056L619.99 626.095ZM156.495 334.178C159.713 346.577 163.344 348.891 172.734 345.623C173.629 345.198 174.424 344.591 175.07 343.84C175.716 343.089 176.197 342.212 176.484 341.264C176.746 340.3 174.706 337.834 173.403 337.519C168.233 336.167 162.917 335.402 156.495 334.178ZM334.831 402.574C334.883 406.719 334.577 410.86 333.918 414.953C332.142 422.469 332.596 423.395 341.221 424.609C341.084 421.364 339.868 417.635 341.033 414.939C343.915 408.272 342.658 405.025 334.831 402.574ZM574.121 738.857C577.013 733.063 588.411 741.527 588.694 731.05L565.389 727.112L564.94 729.64L574.121 738.857ZM656.635 734.481C654.44 732.856 652.09 731.451 649.62 730.286C647.407 729.806 645.148 729.571 642.884 729.583L643.875 747.191L656.635 734.481ZM517.836 391.106L515.304 393.16C527.633 398.825 518.463 408.687 521.195 416.967C529.294 408.12 529.894 401.826 523.632 392.745C522.749 391.466 519.777 391.565 517.836 391.106ZM896.745 681.399C897.544 685.806 899.501 690.357 898.698 694.409C897.894 698.46 894.121 701.568 892.054 705.344C891.177 706.945 891.342 709.096 890.84 712.301C904.873 695.384 906.307 689.014 896.745 681.399ZM710.729 591.005L712.235 587.893L700.029 573.576L699.642 589.565L710.729 591.005ZM890.767 578.124C892.823 567.129 887.358 557.489 875.971 550.418L890.767 578.124ZM482.897 367.417L480.511 386.152C489.985 379.966 490.679 372.435 482.949 367.469L482.897 367.417ZM467.117 330.678C464.178 328.04 461.252 325.077 457.934 322.634C457.189 322.221 456.368 321.96 455.52 321.866C454.672 321.773 453.815 321.849 452.996 322.091C452.175 322.337 451.245 324.616 451.451 325.763C452.614 330.144 463.033 333.029 467.222 330.678L467.117 330.678ZM223.161 312.508L225.981 310.375C223.711 306.455 221.19 302.685 218.434 299.089C217.966 298.619 214.351 300.815 211.338 302.152L223.161 312.508ZM143.93 323.47L142.943 327.703L160.281 330.927L161.165 326.172L143.93 323.47ZM798.142 701.072C809.864 686.197 810.193 684.725 804.055 678.928L798.142 701.072ZM616.815 474.125L603.755 463.312C602.965 472.784 608.198 475.53 616.855 474.086L616.815 474.125ZM243.346 295.081C255.721 291.832 256.558 290.348 251.455 281.803C248.512 286.685 245.975 290.85 243.373 294.977L243.346 295.081ZM825.671 524.917L822.429 523.543C820.898 526.316 817.45 529.88 818.215 531.719C819.835 535.619 823.634 538.597 826.754 542.199L825.671 524.917ZM614.842 260.855C615.602 271.204 619.075 273.96 630.883 273.486L614.842 260.855ZM330.754 383.645C331.005 387.919 330.256 390.98 331.451 392.807C334.515 397.895 338.97 398.867 342.259 396.84L330.754 383.645ZM725.426 694.674L724.001 696.379C726.889 699.016 729.488 702.175 732.807 704.018C734.031 704.698 736.968 702.266 741.378 700.215L725.426 694.674ZM547.889 456.592C542.01 445.231 538.714 444.769 533.368 452.07L547.889 456.592ZM502.929 246.895C498.996 239.655 493.999 236.284 485.216 241.963L502.929 246.895ZM215.208 314.344L202.631 321.046C215.489 322.75 216.599 322.009 215.208 314.344ZM711.278 674.15L710.805 676.286L716.539 682.043C719.606 680.159 722.424 678.418 725.243 676.677L724.779 674.539L711.278 674.15ZM751.775 425.261L763.816 437.35C766.751 430.031 763.957 426.443 751.827 425.313L751.775 425.261ZM710.398 503.561L692.863 494.759C697.519 499.146 700.394 507.544 710.45 503.613L710.398 503.561Z" stroke="#A1C9E6" stroke-miterlimit="10"/>
</g>
<defs>
<clipPath id="clip0_36_4299">
<rect width="846" height="626" fill="white" transform="translate(444 0.448608) rotate(45.1132)"/>
</clipPath>
</defs>
</svg>
