<svg width="97" height="285" viewBox="0 0 97 285" fill="none" xmlns="http://www.w3.org/2000/svg">
<g clip-path="url(#clip0_195_1576)">
<path d="M-168.516 147.026L-162.928 142.26L-161.018 143.866L-155.882 138.578C-157.185 138.961 -158.128 139.23 -159.065 139.516C-160.151 139.848 -161.23 140.197 -162.307 140.538C-162.312 139.712 -162.111 138.82 -162.355 138.072C-162.893 136.389 -163.568 134.753 -164.373 133.181C-165.361 131.282 -164.647 129.355 -162.514 128.654C-162.753 128.101 -163.275 127.489 -163.225 126.943C-162.841 122.618 -162.895 118.135 -161.704 114.022C-160.602 110.182 -158.229 106.678 -156.144 103.185C-155.884 102.75 -153.978 103.3 -152.537 103.416L-154.94 108.135L-148.09 103.484C-150.448 98.8714 -150.448 98.8714 -146.867 96.8632C-149.377 95.7176 -149.888 92.0326 -147.86 90.4386L-142.138 94.6606C-141.421 93.7709 -140.664 92.8672 -139.97 91.9095C-139.277 90.9518 -138.134 89.899 -137.869 88.736C-137.444 86.8543 -137.042 86.101 -135.199 87.4823C-134.731 87.8331 -133.867 87.6493 -133.05 87.0427C-133.699 86.6987 -134.347 86.3604 -134.987 86.0068C-137.021 84.8967 -138.469 83.9492 -137.335 80.9007C-136.519 78.7027 -135.446 78.6425 -133.723 78.3849C-132.513 78.2065 -130.986 77.6997 -130.339 76.8093C-128.852 74.7631 -127.822 72.3943 -126.665 70.2607L-130.58 72.0107L-131.053 71.4642C-128.957 68.6365 -126.834 65.8311 -124.805 62.9571C-124.627 62.7033 -125.041 62.0344 -125.198 61.5547L-125.154 61.571L-126.015 59.1303L-125.462 58.7125L-122.933 60.4693L-121.881 57.5513C-120.556 57.3386 -119.333 57.3404 -118.285 56.9197C-117.338 56.535 -116.582 55.6826 -115.756 55.0664L-115.011 55.8797L-118.366 59.6862L-115.249 60.1662L-115.151 60.7684L-120.202 63.2311L-116.889 64.6858L-127.042 73.3608L-126.769 74.1366L-119.203 73.9324C-119.66 70.5599 -118.981 68.7156 -115.899 68.1061C-114.423 67.8148 -113.256 66.1426 -111.773 65.7088C-110.453 65.3195 -108.881 65.771 -107.094 65.8732C-106.662 64.5174 -106.795 62.1382 -103.915 61.9121C-103.53 61.8846 -103.42 59.7063 -102.987 58.624C-102.358 57.3152 -101.66 56.0404 -100.897 54.805C-99.9469 56.3801 -99.3783 57.3066 -98.8247 58.2447L-101.136 62.3201L-100.369 62.8519L-97.0747 58.8755C-97.4847 57.2436 -97.7565 55.372 -98.4713 53.6884C-98.7366 53.0625 -100.031 52.8758 -101.196 52.3508C-100.532 51.9359 -99.8012 51.6393 -99.0358 51.4743C-96.8368 51.2845 -94.6379 51.3113 -92.4057 51.2881C-91.8854 51.3379 -91.3716 51.4404 -90.872 51.594L-97.1297 55.8322L-96.8241 56.4821C-94.1476 55.6973 -91.4411 54.9975 -88.8105 54.0824C-88.4274 53.927 -88.0806 53.6941 -87.7917 53.3983C-87.5028 53.1025 -87.2782 52.7501 -87.1319 52.3634C-87.016 51.9341 -87.8499 50.8147 -88.4083 50.6932C-91.41 50.0327 -94.4593 49.58 -97.4566 49.0581L-96.709 47.8393L-99.6557 47.6051L-99.6377 47.6561L-96.1346 44.956L-95.977 46.8107C-94.4131 46.8958 -92.8928 47.0918 -91.3701 47.096C-87.3365 47.0551 -83.4138 47.2953 -79.3497 45.8428C-73.0098 43.6068 -66.5164 45.8119 -60.3513 47.3752C-55.3226 48.6579 -50.9556 47.5953 -46.3931 46.2026C-46.2063 46.1367 -45.9426 46.1265 -45.827 46.0029C-41.2415 40.2724 -34.4484 42.5692 -28.6403 41.4058C-25.6833 40.905 -22.6723 40.8047 -19.6884 41.1075C-17.7226 41.2674 -15.7568 42.185 -13.3772 42.8866L-14.9718 40.7111C-7.88549 39.7972 -1.23552 37.4837 5.57813 40.0917C9.44276 41.5748 13.1052 40.9326 17.0199 40.2841C21.5691 39.5393 26.2712 39.7338 30.9148 39.6178C31.2579 39.63 31.5939 39.7191 31.898 39.8785C32.2021 40.038 32.4665 40.2637 32.6718 40.539C34.1606 43.2804 36.7803 43.7063 39.4657 44.3001C43.2754 45.1404 45.1545 48.2663 46.5013 51.4716C48.9341 57.2865 49.2708 63.5287 48.6339 69.6814C48.286 73.026 46.6921 76.2306 45.7375 79.5153C45.5963 80.0938 45.5912 80.6971 45.7227 81.2779C46.6565 85.7304 47.4562 90.2175 48.6002 94.6342C48.9484 95.9822 50.1662 97.1254 51.0508 98.3161C52.3532 100.06 53.8924 101.663 55.005 103.518C56.5478 106.088 57.942 108.85 54.7529 111.375L57.0467 114.45L57.6295 110.526C59.635 110.564 61.5432 110.795 62.4926 113.306C63.2356 115.413 65.5075 117.56 65.1877 119.36C64.3375 124.168 67.9955 127.952 67.4203 132.53C67.401 132.783 67.4348 133.038 67.5193 133.278C67.6039 133.518 67.7375 133.737 67.9116 133.923C71.6183 137.34 69.2282 140.832 68.0003 144.226C67.1833 146.475 66.1356 148.341 62.9627 148.205C60.282 148.094 58.6381 151.374 59.04 154.173C59.2856 155.844 58.8323 157.609 58.7755 159.361C58.6834 162.023 58.6787 164.699 58.5942 167.365C58.4469 171.982 59.7754 176.741 57.3706 181.129C56.1397 183.378 54.7323 185.524 53.4439 187.736C51.4664 191.152 49.6357 194.714 47.3935 197.975C46.549 199.19 44.8368 199.966 43.358 200.519C41.0022 201.401 38.5168 201.934 36.0814 202.608L36.099 203.398L40.2763 204.414C39.5083 207.073 37.849 208.053 35.4925 208.896C31.8187 210.192 28.3913 212.222 24.8882 213.948C24.51 214.139 23.8749 214.414 23.477 214.567C4.77474 221.851 -13.9016 229.208 -32.6455 236.392C-47.6816 242.16 -47.1259 242.021 -62.2719 247.478C-64.9833 248.434 -67.6422 249.576 -70.2642 250.66C-75.5343 252.843 -82.0565 256.926 -87.9662 255.203C-90.4621 254.479 -92.5017 252.702 -94.7955 251.486C-101.445 247.973 -107.975 250.824 -114.852 251.683C-121.436 252.503 -128.146 252.59 -134.446 255.137C-135.478 255.551 -136.808 255.263 -137.997 255.23C-141.351 255.14 -144.706 255.049 -148.058 254.875C-149.108 254.819 -150.506 254.809 -151.138 254.172C-155.058 250.276 -160.281 249.489 -165.185 247.984C-169.109 246.782 -172.635 245.123 -175.055 241.653C-175.108 241.579 -175.173 241.516 -175.248 241.466C-180.355 238.122 -180.346 232.516 -181.563 227.406C-182.006 225.363 -182.819 223.418 -183.962 221.668C-187.639 216.387 -188.788 210.26 -190.243 204.221C-190.323 204.028 -190.349 203.817 -190.318 203.611C-188.053 197.4 -187.192 190.818 -182.587 185.252C-180.279 182.464 -178.65 178.133 -177.504 174.201C-177.147 172.974 -177.272 171.573 -176.783 170.432C-176.457 169.68 -175.444 169.196 -175.268 169.045C-174.153 171.574 -173.273 173.581 -172.395 175.583L-171.23 175.369C-171.023 174.692 -170.431 173.681 -170.657 173.384C-172.748 170.938 -171.443 169.351 -168.872 167.617L-172.679 166.839C-172.66 165.088 -172.784 163.291 -172.646 161.517C-172.567 160.604 -172 159.742 -171.681 158.84C-170.824 156.309 -169.089 153.99 -170.995 151.04C-172.628 148.502 -170.087 147.931 -168.504 147.06C-168.334 148.318 -168.132 149.559 -167.994 150.815C-167.88 151.877 -167.843 152.94 -167.716 154.761L-166.009 149.007L-168.516 147.026ZM-132.606 152.24L-129.033 151.993C-128.776 149.113 -128.496 146.531 -128.236 143.931L-121.463 144.185C-121.648 142.976 -122.001 141.974 -121.885 141.041C-121.768 140.109 -121.405 138.593 -120.758 138.333C-119.808 137.959 -118.467 138.333 -117.364 138.645C-116.132 138.984 -114.826 138.946 -113.616 138.534C-112.406 138.122 -111.348 137.356 -110.579 136.335C-113.956 136.182 -117.405 136.832 -120.039 133.514C-121.614 131.522 -123.997 132.165 -125.113 134.45C-125.629 135.72 -126.017 137.038 -126.271 138.386C-125.219 139.562 -124.595 140.214 -123.991 140.88C-124.948 141.217 -125.994 141.949 -126.857 141.776C-129.13 141.305 -130.86 140.985 -130.662 144.29C-130.614 145.056 -131.696 145.832 -132.066 146.695C-132.84 148.49 -134.989 150.229 -132.47 152.282L-134.351 154.709L-131.447 155.003L-133.018 157.766C-130.123 156.427 -127.69 155.441 -125.407 154.19C-124.435 153.582 -123.638 152.73 -123.096 151.72C-122.804 151.21 -123.032 149.787 -123.367 149.651C-124.467 149.3 -125.623 149.164 -126.774 149.248C-127.069 149.924 -127.155 150.673 -127.022 151.398C-126.364 153.261 -127.19 153.953 -128.814 153.679C-130.139 153.459 -131.342 152.737 -132.606 152.24ZM-1.63774 106.291L-2.64204 106.836C-2.9944 107.642 -3.66341 108.47 -3.69313 109.27C-3.74634 112.097 -5.06569 113.192 -7.84602 113.574C-9.10167 113.75 -10.5665 115.209 -11.175 116.461C-11.7834 117.714 -11.4813 119.473 -11.5696 120.937L2.25635 112.73C1.07916 110.764 -0.275461 108.529 -1.65474 106.297L-1.63774 106.291ZM-67.4247 137.962C-71.4107 138.228 -70.6152 141.819 -71.571 144.162C-72.5269 146.505 -73.0443 149.279 -73.7474 151.851L-72.669 152.184C-72.0895 150.578 -71.2416 149.012 -70.9761 147.365C-70.2731 143.258 -68.9831 139.715 -64.3944 138.632C-64.3353 137.121 -64.2869 135.76 -64.2382 134.419C-68.6476 133.917 -68.7538 134.031 -67.4247 137.962ZM-140.802 181.804L-141.002 181.582L-139.7 178.053C-141.168 178.367 -142.842 178.366 -144.017 179.13C-144.656 179.54 -144.538 181.263 -144.596 182.397C-144.708 184.048 -144.704 185.702 -144.753 187.98C-144.227 188.01 -142.127 188.371 -142.04 188.092C-141.487 186.027 -141.074 183.926 -140.802 181.804ZM-91.0514 112.605L-90.7019 113.921L-83.7234 112.052L-82.7779 113.47L-75.046 109.839C-76.0527 108.067 -76.9706 107.467 -78.85 108.238C-82.8371 109.855 -86.97 111.166 -91.0514 112.605ZM13.1898 98.6864C13.0178 97.6392 12.9013 96.948 12.7928 96.2795L17.1933 96.4848C14.436 92.6372 11.5368 93.386 8.77598 94.9964C7.52061 95.7321 6.63909 97.1127 5.59113 98.2018L6.1934 98.9891L13.1898 98.6864ZM-134.949 161.676L-141.499 167.016L-142.131 166.469L-142.256 170.264C-136.43 168.107 -132.948 163.542 -134.949 161.676ZM-150.375 120.03C-153.891 116.488 -149.784 115.625 -148.095 113.864L-149.092 113.076L-155.79 119.132L-156.368 118.794C-156.127 117.563 -155.883 116.335 -155.637 115.111L-156.678 115.026C-156.717 116.721 -157.5 118.996 -156.69 120.009C-155.309 121.795 -152.909 121.688 -150.375 120.03ZM-154.781 142.819C-151.644 140.885 -148.359 140.312 -146.534 137.599L-146.902 136.735L-154.416 138.15L-154.781 142.819ZM10.9113 143.406C9.5504 140.702 8.46278 138.539 7.37517 136.375C4.83606 138.614 4.29076 141.201 5.60162 145.062C5.92172 143.93 6.25445 142.762 6.59286 141.592L7.43855 142.185L10.9113 143.406ZM-173.783 207.145L-174.581 206.688C-175.918 208.618 -177.311 210.516 -178.563 212.505C-178.673 212.782 -178.724 213.078 -178.714 213.376C-178.703 213.674 -178.63 213.966 -178.501 214.234C-178.126 214.871 -177.676 215.46 -177.162 215.99C-176.69 215.461 -176.28 214.878 -175.941 214.255C-175.609 213.501 -175.766 212.098 -175.282 211.864C-172.844 210.692 -173.977 208.78 -173.783 207.145ZM-127.58 139.274C-127.526 137.998 -127.601 136.719 -127.807 135.457C-127.876 135.151 -129.401 134.816 -129.931 135.099C-130.936 135.625 -131.699 136.601 -132.951 137.743C-132.855 138.18 -132.636 139.179 -132.395 140.24L-127.58 139.274ZM-134.826 158.614C-135.854 157.232 -136.746 156.038 -137.639 154.843L-139.118 158.625L-143.657 160.825L-143.041 162.155L-134.826 158.614ZM-28.0326 116.848L-24.2331 113.076C-26.2835 113.073 -27.6251 113.33 -28.8114 113.016C-32.1913 112.113 -34.4789 113.64 -34.9738 117.38C-32.6367 114.658 -30.4444 113.439 -28.0247 116.871L-28.0326 116.848ZM-71.7138 115.19C-79.253 115.939 -79.253 115.939 -78.4112 122.187L-76.441 118.895L-77.1565 118.472L-71.7138 115.19ZM-122.164 81.7962L-122.454 80.7586C-123.783 80.8327 -125.13 80.8236 -126.447 81.021C-127.765 81.2184 -129.289 82.1315 -130.515 81.8506C-133.067 81.2735 -133.493 82.4298 -133.418 84.5555L-122.164 81.7962ZM-22.3389 127.849C-19.3618 127.862 -13.9616 123.016 -13.9326 118.695C-15.0537 119.601 -16.1232 120.569 -17.136 121.595C-19.0088 123.72 -20.7644 125.924 -22.3559 127.855L-22.3389 127.849ZM-173.103 223.295C-169.005 224.085 -167.817 223.341 -167.463 220.121C-167.462 219.799 -167.53 219.48 -167.66 219.185C-167.79 218.89 -167.981 218.625 -168.22 218.408C-168.466 218.196 -169.478 218.451 -169.753 218.79C-170.874 220.121 -171.844 221.577 -173.103 223.295ZM-128.013 180.42C-126.787 180.985 -125.612 181.655 -124.5 182.422C-122.538 183.997 -122.202 183.993 -120.637 181.626C-121.611 181.212 -122.878 181.048 -123.508 180.327C-125.065 178.546 -126.196 178.461 -128.013 180.42ZM4.40339 157.13C3.1043 155.468 7.19009 153.301 4.14822 151.751L-0.273592 158.054L0.406982 158.54L4.40339 157.13ZM14.6713 132.248C13.8859 132.666 13.1435 133.161 12.4549 133.724C12.004 134.308 11.6184 134.939 11.3049 135.607L16.6226 137.781L14.6713 132.248ZM-105.76 124.988L-105.51 126.021C-102.117 123.188 -100.501 127.266 -97.6829 127.622C-99.151 124.001 -100.918 122.943 -104.466 123.513C-104.966 123.594 -105.353 124.482 -105.76 124.988ZM32.6821 54.1933C34.0899 54.5755 35.7028 54.637 36.7819 55.4408C37.8609 56.2445 38.2467 57.7894 39.0677 58.9262C39.4159 59.4082 40.0715 59.6609 40.9438 60.2574C37.9334 53.7612 36.2607 52.4473 32.6821 54.1933ZM-19.9532 96.2465L-20.6576 95.368L-26.578 96.953L-21.9293 99.3058L-19.9532 96.2465ZM1.46941 41.4898C-1.4765 39.3451 -5.07722 39.6027 -8.75144 41.9619L1.46941 41.4898ZM-117.62 131.947L-112.443 135.273C-112.936 131.62 -115.054 130.361 -117.597 131.939L-117.62 131.947ZM-130.635 131.444C-131.822 131.939 -133.104 132.384 -134.287 133.018C-134.513 133.18 -134.705 133.385 -134.851 133.621C-134.997 133.857 -135.095 134.12 -135.138 134.395C-135.181 134.671 -134.641 135.263 -134.274 135.363C-132.823 135.635 -130.515 132.974 -130.62 131.413L-130.635 131.444ZM-170.141 200.652L-170.374 199.524C-171.845 199.643 -173.306 199.856 -174.75 200.164C-174.954 200.236 -174.814 201.606 -174.843 202.68L-170.141 200.652ZM-178.012 225.491L-176.905 226.374L-173.529 221.726L-174.804 220.8L-178.012 225.491ZM24.6605 85.9493C21.927 80.4187 21.5401 80.1158 18.9755 81.1095L24.6605 85.9493ZM-67.4813 107.502L-72.4907 109.829C-69.8152 111.387 -68.2747 110.233 -67.4873 107.485L-67.4813 107.502ZM-172.44 192.275C-171.663 188.18 -171.982 187.726 -175.21 188.031C-174.186 189.58 -173.317 190.909 -172.467 192.253L-172.44 192.275ZM-23.2956 53.1851L-24.1538 53.9462C-23.5525 54.7848 -22.987 56.2981 -22.339 56.3307C-20.9652 56.4001 -19.5573 55.6998 -18.0609 55.2866L-23.2956 53.1851ZM-130.485 78.2172C-127.335 79.4429 -126.038 78.8072 -124.524 75.2678L-130.485 78.2172ZM-134.152 178.968C-132.859 179.493 -132.064 180.142 -131.359 180.046C-129.434 179.858 -128.524 178.683 -128.66 177.432L-134.152 178.968ZM12.5961 106.441L12.898 107.099C14.0781 106.619 15.371 106.297 16.378 105.578C16.7493 105.314 16.4454 104.109 16.4595 102.525L12.5961 106.441ZM-82.2902 125.319C-86.455 125.457 -87.0525 126.362 -85.6536 128.957L-82.2902 125.319ZM-150.263 109.178C-152.943 109.321 -154.634 110.319 -154.194 113.698L-150.263 109.178ZM-170.715 203.249L-170.505 207.886C-168.203 204.343 -168.266 203.913 -170.715 203.249ZM4.57832 107.728L5.14034 108.167L7.63672 107.286C7.51197 106.12 7.39447 105.047 7.27704 103.975L6.58314 103.812L4.57832 107.728ZM-62.9544 60.9643L-57.7127 59.1156C-59.4543 57.2275 -60.901 57.5467 -62.9318 60.9563L-62.9544 60.9643ZM-45.7189 84.0988L-50.763 88.0237C-48.8208 87.2686 -45.9483 87.599 -45.6962 84.0908L-45.7189 84.0988Z" stroke="#A1C9E6" stroke-width="0.325756" stroke-miterlimit="10"/>
</g>
<defs>
<clipPath id="clip0_195_1576">
<rect width="275.59" height="203.923" fill="white" transform="translate(-231 92) rotate(-19.4274)"/>
</clipPath>
</defs>
</svg>
